<?xml version="1.0" encoding="UTF-8"?>
<svg width="752pt" height="752pt" version="1.1" viewBox="127 127 500 500" xmlns="http://www.w3.org/2000/svg">
    <defs>
            <linearGradient id="MyGradient" gradientTransform="rotate(45)">
                <stop offset="5%" stop-color="#ff1e00" />
                <stop offset="35%" stop-color="#F60" />
                <stop offset="75%" stop-color="#ffa600" />
                <stop offset="95%" stop-color="#FF6" />
            </linearGradient>
    </defs>
    <g style="fill:url(#MyGradient);">
        <path d="m376 373.63c-48.777 0-88.559-39.781-88.559-88.559 0-48.777 39.781-88.086 88.559-88.086s88.559 39.781 88.559 88.559c0.003906 48.781-39.777 88.086-88.559 88.086zm0-167.17c-43.57 0-79.09 35.52-79.09 79.09 0.003906 43.566 35.523 78.609 79.09 78.609 43.57 0 79.09-35.516 79.09-79.086 0-43.57-35.52-78.613-79.09-78.613z"/>
        <path d="m376 404.89c-25.574 0-50.199-8.0508-70.562-22.73-1.8945-1.4219-2.8398-4.2617-0.94531-6.6289 1.4219-1.8945 4.2617-2.8398 6.6289-0.94531 18.941 13.734 41.676 20.836 65.355 20.836 23.68 0 45.938-7.1055 65.355-20.836 1.8945-1.4219 5.2109-0.94531 6.6289 0.94531 1.4219 1.8945 0.94531 5.2109-0.94531 6.6289-21.316 14.68-45.941 22.73-71.516 22.73z"/>
        <path d="m519.5 555.02h-286.99c-15.629 0-28.414-12.785-28.414-28.414v-23.68c0-62.512 42.148-115.55 102.77-129.29 1.4219-0.47266 2.8398 0 3.7891 0.94531 18.941 13.734 41.676 20.836 65.355 20.836 23.68 0 45.938-7.1055 65.355-20.836 0.94531-0.94531 2.3672-0.94531 3.7891-0.94531 60.617 13.734 102.77 67.25 102.77 129.29v23.68c-0.003906 15.625-12.789 28.414-28.418 28.414zm-212.64-171.44c-55.41 13.734-93.77 62.512-93.77 119.82v23.68c0 10.418 8.5234 18.941 18.941 18.941h287.46c10.418 0 18.941-8.5234 18.941-18.941v-23.68c0-57.305-38.359-106.08-93.77-119.82-20.363 14.207-44.043 21.312-69.145 21.312-25.094 0-48.301-7.5781-68.664-21.312z"/>
    </g>
</svg>
